<?xml version="1.0" encoding="utf-8"?>
<!-- Uploaded to: SVG Repo, www.svgrepo.com, Generator: SVG Repo Mixer Tools -->
<svg width="800px" height="800px" viewBox="0 0 1024 1024" class="icon"  version="1.1" xmlns="http://www.w3.org/2000/svg"><path d="M137.1 805.9h113.5v94.8H137.1z" fill="#89B7F5" /><path d="M250.5 915.6H137.1c-8.3 0-15-6.7-15-15v-94.8c0-8.3 6.7-15 15-15h113.5c8.3 0 15 6.7 15 15v94.8c-0.1 8.3-6.8 15-15.1 15z m-98.4-30h83.5v-64.8h-83.5v64.8z" fill="#0F53A8" /><path d="M777.1 805.9h113.5v94.8H777.1z" fill="#89B7F5" /><path d="M890.6 915.6H777.1c-8.3 0-15-6.7-15-15v-94.8c0-8.3 6.7-15 15-15h113.5c8.3 0 15 6.7 15 15v94.8c0 8.3-6.7 15-15 15z m-98.5-30h83.5v-64.8h-83.5v64.8z" fill="#0F53A8" /><path d="M963.5 848H64.2c-17.2 0-31.1-13.9-31.1-31.1V152.4c0-17.2 13.9-31.1 31.1-31.1h899.3c17.2 0 31.1 13.9 31.1 31.1V817c-0.1 17.1-14 31-31.1 31z" fill="#89B7F5" /><path d="M963.5 863H64.2c-25.4 0-46.1-20.7-46.1-46.1V152.4c0-25.4 20.7-46.1 46.1-46.1h899.3c25.4 0 46.1 20.7 46.1 46.1V817c-0.1 25.3-20.7 46-46.1 46zM64.2 136.3c-8.9 0-16.1 7.2-16.1 16.1V817c0 8.9 7.2 16.1 16.1 16.1h899.3c8.9 0 16.1-7.2 16.1-16.1V152.4c0-8.9-7.2-16.1-16.1-16.1H64.2z" fill="#0F53A8" /><path d="M859.6 771.6H168c-18.7 0-33.9-15.2-33.9-33.9V231.6c0-18.7 15.2-33.9 33.9-33.9h691.6c18.7 0 33.9 15.2 33.9 33.9v506.2c0 18.7-15.2 33.8-33.9 33.8z" fill="#B6CDEF" /><path d="M859.6 786.6H168c-27 0-48.9-21.9-48.9-48.9V231.6c0-27 21.9-48.9 48.9-48.9h691.6c27 0 48.9 21.9 48.9 48.9v506.2c0 26.9-21.9 48.8-48.9 48.8zM168 212.6c-10.4 0-18.9 8.5-18.9 18.9v506.2c0 10.4 8.5 18.9 18.9 18.9h691.6c10.4 0 18.9-8.5 18.9-18.9V231.6c0-10.4-8.5-18.9-18.9-18.9H168z" fill="#0F53A8" /><path d="M337.5 583.6c-8.3 0-15-6.7-15-15V360.3c0-8.3 6.7-15 15-15s15 6.7 15 15v208.2c0 8.3-6.7 15.1-15 15.1z" fill="#0F53A8" /><path d="M411.2 553.1c-3.8 0-7.7-1.5-10.6-4.4L253.3 401.4c-5.9-5.9-5.9-15.4 0-21.2 5.9-5.9 15.4-5.9 21.2 0l147.2 147.2c5.9 5.9 5.9 15.4 0 21.2-2.9 3-6.7 4.5-10.5 4.5z" fill="#0F53A8" /><path d="M441.6 479.5H233.4c-8.3 0-15-6.7-15-15s6.7-15 15-15h208.2c8.3 0 15 6.7 15 15s-6.7 15-15 15z" fill="#0F53A8" /><path d="M263.9 553.1c-3.8 0-7.7-1.5-10.6-4.4-5.9-5.9-5.9-15.4 0-21.2l147.2-147.2c5.9-5.9 15.4-5.9 21.2 0s5.9 15.4 0 21.2L274.5 548.7c-2.9 2.9-6.7 4.4-10.6 4.4z" fill="#0F53A8" /><path d="M337.5 464.5m-73.7 0a73.7 73.7 0 1 0 147.4 0 73.7 73.7 0 1 0-147.4 0Z" fill="#89B7F5" /><path d="M337.5 553.2c-48.9 0-88.7-39.8-88.7-88.7 0-48.9 39.8-88.7 88.7-88.7s88.7 39.8 88.7 88.7c0.1 48.9-39.7 88.7-88.7 88.7z m0-147.5c-32.4 0-58.7 26.4-58.7 58.7s26.4 58.7 58.7 58.7 58.7-26.4 58.7-58.7-26.3-58.7-58.7-58.7z" fill="#0F53A8" /><path d="M337.5 464.5m-33.7 0a33.7 33.7 0 1 0 67.4 0 33.7 33.7 0 1 0-67.4 0Z" fill="#0F53A8" /><path d="M561 430.7h214.1v67.4H561z" fill="#89B7F5" /><path d="M775.1 513.2H561c-8.3 0-15-6.7-15-15v-67.4c0-8.3 6.7-15 15-15h214.1c8.3 0 15 6.7 15 15v67.4c0 8.2-6.7 15-15 15z m-199.1-30h184.1v-37.4H576v37.4z" fill="#0F53A8" /></svg>